<svg width="154" height="98" viewBox="0 0 154 98" fill="none" xmlns="http://www.w3.org/2000/svg">
<path d="M69.7479 4.7695C72.2538 2.23569 78.1374 2.23569 80.6433 4.7695C82.7436 6.89321 87.3967 7.31237 90.3671 5.64536C93.9108 3.65651 99.5561 4.69504 100.821 7.56845C101.881 9.97696 106.157 11.2004 109.757 10.1252C114.052 8.84238 119.002 10.8353 118.922 13.8156C118.857 16.3136 122.409 18.2423 126.346 17.846C131.045 17.3732 134.898 20.159 133.482 23.0048C132.296 25.39 134.837 27.8676 138.793 28.1823C143.513 28.5578 145.957 31.9109 143.319 34.3915C141.108 36.4707 142.433 39.2966 146.087 40.2968C150.447 41.4902 151.284 45.1388 147.638 47.0533C144.581 48.658 144.581 51.6032 147.638 53.2079C151.284 55.1225 150.447 58.771 146.087 59.9644C142.433 60.9646 141.108 63.7906 143.319 65.8697C145.957 68.3503 143.513 71.7034 138.793 72.0788C134.837 72.3934 132.296 74.8713 133.482 77.2565C134.898 80.1022 131.045 82.8883 126.346 82.4151C122.409 82.0187 118.857 83.9479 118.922 86.4454C119.002 89.426 114.052 91.4186 109.757 90.1359C106.157 89.0605 101.881 90.2844 100.821 92.693C99.5561 95.5665 93.9108 96.605 90.3671 94.6155C87.3967 92.9485 82.7436 93.3682 80.6433 95.4919C78.1374 98.0256 72.2538 98.0256 69.7479 95.4919C67.6477 93.3682 62.9945 92.9485 60.0242 94.6155C56.4804 96.605 50.8351 95.5665 49.5703 92.693C48.51 90.2844 44.2339 89.0605 40.6343 90.1359C36.3397 91.4186 31.39 89.426 31.4686 86.4454C31.5344 83.9479 27.9816 82.0187 24.0443 82.4151C19.3468 82.8883 15.4938 80.1022 16.9094 77.2565C18.0958 74.8713 15.5542 72.3934 11.5983 72.0788C6.87844 71.7034 4.43431 68.3503 7.07223 65.8697C9.28316 63.7906 7.95877 60.9646 4.30454 59.9644C-0.0552423 58.771 -0.892568 55.1225 2.75397 53.2079C5.8104 51.6032 5.8104 48.658 2.75397 47.0533C-0.892568 45.1388 -0.0552423 41.4902 4.30454 40.2968C7.95877 39.2966 9.28316 36.4707 7.07223 34.3915C4.43431 31.9109 6.87844 28.5578 11.5983 28.1823C15.5542 27.8676 18.0958 25.39 16.9094 23.0048C15.4938 20.159 19.3468 17.3732 24.0443 17.846C27.9816 18.2423 31.5344 16.3136 31.4686 13.8156C31.39 10.8353 36.3397 8.84238 40.6343 10.1252C44.2339 11.2004 48.51 9.97696 49.5703 7.56845C50.8351 4.69504 56.4804 3.65651 60.0242 5.64536C62.9945 7.31237 67.6477 6.89321 69.7479 4.7695Z" fill="#BBBBBB"/>
<path d="M73.3567 2.50826C75.8625 -0.0255384 81.7461 -0.0255384 84.252 2.50826C86.3523 4.63198 91.0054 5.05115 93.9758 3.38415C97.5195 1.39528 103.165 2.4338 104.43 5.30723C105.49 7.71573 109.766 8.93916 113.366 7.86397C117.66 6.58115 122.61 8.57403 122.531 11.5544C122.466 14.0524 126.018 15.9811 129.955 15.5848C134.654 15.1119 138.507 17.8978 137.091 20.7435C135.905 23.1288 138.445 25.6064 142.402 25.9211C147.122 26.2966 149.566 29.6496 146.928 32.1303C144.717 34.2094 146.042 37.0354 149.696 38.0356C154.055 39.2289 154.892 42.8775 151.246 44.792C148.19 46.3968 148.19 49.342 151.246 50.9467C154.892 52.8612 154.055 56.5098 149.696 57.7032C146.042 58.7034 144.717 61.5293 146.928 63.6085C149.566 66.0891 147.122 69.4421 142.402 69.8176C138.445 70.1324 135.905 72.6101 137.091 74.9953C138.507 77.841 134.654 80.6271 129.955 80.1538C126.018 79.7574 122.466 81.6867 122.531 84.1842C122.61 87.1648 117.66 89.1574 113.366 87.8747C109.766 86.7993 105.49 88.0232 104.43 90.4318C103.165 93.3053 97.5195 94.3438 93.9758 92.3542C91.0054 90.6872 86.3523 91.107 84.252 93.2307C81.7461 95.7644 75.8625 95.7644 73.3567 93.2307C71.2564 91.107 66.6032 90.6872 63.6329 92.3542C60.0892 94.3438 54.4438 93.3053 53.179 90.4318C52.1188 88.0232 47.8426 86.7993 44.243 87.8747C39.9484 89.1574 34.9987 87.1648 35.0773 84.1842C35.1431 81.6867 31.5903 79.7574 27.653 80.1538C22.9556 80.6271 19.1026 77.841 20.5181 74.9953C21.7045 72.6101 19.1629 70.1324 15.207 69.8176C10.4872 69.4421 8.04299 66.0891 10.6809 63.6085C12.8919 61.5293 11.5675 58.7034 7.9132 57.7032C3.55347 56.5098 2.71614 52.8612 6.36266 50.9467C9.4191 49.342 9.4191 46.3968 6.36266 44.7921C2.71614 42.8775 3.55347 39.2289 7.9132 38.0356C11.5675 37.0354 12.8919 34.2094 10.6809 32.1303C8.04299 29.6496 10.4872 26.2966 15.207 25.9211C19.1629 25.6064 21.7045 23.1288 20.5181 20.7435C19.1026 17.8978 22.9556 15.1119 27.653 15.5848C31.5903 15.9811 35.1431 14.0524 35.0773 11.5544C34.9987 8.57403 39.9484 6.58115 44.243 7.86397C47.8426 8.93916 52.1188 7.71573 53.179 5.30723C54.4438 2.43379 60.0892 1.39528 63.6329 3.38415C66.6032 5.05115 71.2564 4.63198 73.3567 2.50826Z" fill="#292E36"/>
</svg>
