<svg width="155" height="98" viewBox="0 0 155 98" fill="none" xmlns="http://www.w3.org/2000/svg">
<path d="M70.2043 4.7695C72.7253 2.23569 78.6443 2.23569 81.1653 4.7695C83.2782 6.89321 87.9594 7.31237 90.9476 5.64536C94.5127 3.65651 100.192 4.69504 101.465 7.56845C102.531 9.97696 106.833 11.2004 110.454 10.1252C114.775 8.84238 119.755 10.8353 119.675 13.8156C119.609 16.3136 123.183 18.2423 127.144 17.846C131.871 17.3732 135.747 20.159 134.322 23.0048C133.129 25.39 135.685 27.8676 139.665 28.1823C144.414 28.5578 146.873 31.9109 144.219 34.3915C141.995 36.4707 143.327 39.2966 147.003 40.2968C151.389 41.4902 152.231 45.1388 148.563 47.0533C145.488 48.658 145.488 51.6032 148.563 53.2079C152.231 55.1225 151.389 58.771 147.003 59.9644C143.327 60.9646 141.995 63.7906 144.219 65.8697C146.873 68.3503 144.414 71.7034 139.665 72.0788C135.685 72.3934 133.129 74.8713 134.322 77.2565C135.747 80.1022 131.871 82.8883 127.144 82.4151C123.183 82.0187 119.609 83.9479 119.675 86.4454C119.755 89.426 114.775 91.4186 110.454 90.1359C106.833 89.0605 102.531 90.2844 101.465 92.693C100.192 95.5665 94.5127 96.605 90.9476 94.6155C87.9594 92.9485 83.2782 93.3682 81.1653 95.4919C78.6443 98.0256 72.7253 98.0256 70.2043 95.4919C68.0914 93.3682 63.4102 92.9485 60.422 94.6155C56.8569 96.605 51.1775 95.5665 49.9051 92.693C48.8384 90.2844 44.5365 89.0605 40.9153 90.1359C36.5948 91.4186 31.6153 89.426 31.6943 86.4454C31.7605 83.9479 28.1864 82.0187 24.2253 82.4151C19.4996 82.8883 15.6234 80.1022 17.0475 77.2565C18.241 74.8713 15.6841 72.3934 11.7043 72.0788C6.95606 71.7034 4.4972 68.3503 7.15101 65.8697C9.37526 63.7906 8.04289 60.9646 4.36665 59.9644C-0.0194012 58.771 -0.861771 55.1225 2.80673 53.2079C5.88158 51.6032 5.88158 48.658 2.80673 47.0533C-0.861771 45.1388 -0.0194012 41.4902 4.36665 40.2968C8.04289 39.2966 9.37526 36.4707 7.15101 34.3915C4.4972 31.9109 6.95606 28.5578 11.7043 28.1823C15.6841 27.8676 18.241 25.39 17.0475 23.0048C15.6234 20.159 19.4996 17.3732 24.2253 17.846C28.1864 18.2423 31.7605 16.3136 31.6943 13.8156C31.6153 10.8353 36.5948 8.84238 40.9153 10.1252C44.5365 11.2004 48.8384 9.97696 49.9051 7.56845C51.1775 4.69504 56.8569 3.65651 60.422 5.64536C63.4102 7.31237 68.0914 6.89321 70.2043 4.7695Z" fill="#82B4B4"/>
<path d="M73.8347 2.50826C76.3557 -0.0255384 82.2747 -0.0255384 84.7957 2.50826C86.9086 4.63198 91.5898 5.05115 94.578 3.38415C98.1431 1.39528 103.822 2.4338 105.095 5.30723C106.162 7.71573 110.463 8.93916 114.085 7.86397C118.405 6.58115 123.385 8.57403 123.305 11.5544C123.24 14.0524 126.813 15.9811 130.774 15.5848C135.501 15.1119 139.377 17.8978 137.953 20.7435C136.76 23.1288 139.315 25.6064 143.296 25.9211C148.044 26.2966 150.503 29.6496 147.849 32.1303C145.625 34.2094 146.957 37.0354 150.634 38.0356C155.019 39.2289 155.862 42.8775 152.194 44.792C149.119 46.3968 149.119 49.342 152.194 50.9467C155.862 52.8612 155.019 56.5098 150.634 57.7032C146.957 58.7034 145.625 61.5293 147.849 63.6085C150.503 66.0891 148.044 69.4421 143.296 69.8176C139.315 70.1324 136.76 72.6101 137.953 74.9953C139.377 77.841 135.501 80.6271 130.774 80.1538C126.813 79.7574 123.24 81.6867 123.305 84.1842C123.385 87.1648 118.405 89.1574 114.085 87.8747C110.463 86.7993 106.162 88.0232 105.095 90.4318C103.822 93.3053 98.1431 94.3438 94.578 92.3542C91.5898 90.6872 86.9086 91.107 84.7957 93.2307C82.2747 95.7644 76.3557 95.7644 73.8347 93.2307C71.7218 91.107 67.0406 90.6872 64.0524 92.3542C60.4873 94.3438 54.808 93.3053 53.5355 90.4318C52.4689 88.0232 48.1669 86.7993 44.5457 87.8747C40.2252 89.1574 35.2457 87.1648 35.3248 84.1842C35.391 81.6867 31.8168 79.7574 27.8557 80.1538C23.13 80.6271 19.2538 77.841 20.6779 74.9953C21.8715 72.6101 19.3145 70.1324 15.3347 69.8176C10.5865 69.4421 8.1276 66.0891 10.7814 63.6085C13.0057 61.5293 11.6733 58.7034 7.99702 57.7032C3.61103 56.5098 2.76866 52.8612 6.43714 50.9467C9.512 49.342 9.512 46.3968 6.43714 44.7921C2.76866 42.8775 3.61103 39.2289 7.99702 38.0356C11.6733 37.0354 13.0057 34.2094 10.7814 32.1303C8.1276 29.6496 10.5865 26.2966 15.3347 25.9211C19.3145 25.6064 21.8715 23.1288 20.6779 20.7435C19.2538 17.8978 23.13 15.1119 27.8557 15.5848C31.8168 15.9811 35.391 14.0524 35.3248 11.5544C35.2457 8.57403 40.2252 6.58115 44.5457 7.86397C48.1669 8.93916 52.4689 7.71573 53.5355 5.30723C54.808 2.43379 60.4873 1.39528 64.0524 3.38415C67.0406 5.05115 71.7218 4.63198 73.8347 2.50826Z" fill="white"/>
</svg>
